<svg width="15" height="22" viewBox="0 0 15 22" fill="none" xmlns="http://www.w3.org/2000/svg">
<path d="M14.1294 21.7895L13.7273 22L2.89161 4.96667C2.25695 4.81229 1.90992 4.26661 1.56166 3.71813C1.32908 3.35378 0.401203 1.89527 -0.000256538 0C1.60806 1.2637 2.53593 2.72221 2.76728 3.08768C3.11492 3.63504 3.46319 4.18184 3.29308 4.75727L14.1294 21.7895Z" fill="black"/>
<path d="M14.1294 21.7895L13.7273 22L2.89161 4.96667C2.25695 4.81229 1.90992 4.26661 1.56166 3.71813C1.32908 3.35378 0.401203 1.89527 -0.000256538 0C1.60806 1.2637 2.53593 2.72221 2.76728 3.08768C3.11492 3.63504 3.46319 4.18184 3.29308 4.75727L14.1294 21.7895Z" fill="#232D4D"/>
<path d="M0.870964 21.7895L1.27242 22L12.1081 4.96667C12.7422 4.81229 13.0898 4.26661 13.4381 3.71813C13.67 3.35378 14.5979 1.89527 15 0C13.3917 1.2637 12.4638 2.72221 12.2325 3.08768C11.8848 3.63504 11.5366 4.18184 11.7067 4.75727L0.870964 21.7895Z" fill="black"/>
<path d="M0.870964 21.7895L1.27242 22L12.1081 4.96667C12.7422 4.81229 13.0898 4.26661 13.4381 3.71813C13.67 3.35378 14.5979 1.89527 15 0C13.3917 1.2637 12.4638 2.72221 12.2325 3.08768C11.8848 3.63504 11.5366 4.18184 11.7067 4.75727L0.870964 21.7895Z" fill="#232D4D"/>
</svg>
