<svg width="26" height="8" viewBox="0 0 26 8" fill="none" xmlns="http://www.w3.org/2000/svg">
<path opacity="0.8" d="M1 3.49988C0.723858 3.49988 0.5 3.72374 0.5 3.99988C0.5 4.27602 0.723858 4.49988 1 4.49988V3.49988ZM25.3536 4.35343C25.5488 4.15817 25.5488 3.84159 25.3536 3.64632L22.1716 0.464344C21.9763 0.269082 21.6597 0.269082 21.4645 0.464344C21.2692 0.659606 21.2692 0.976189 21.4645 1.17145L24.2929 3.99988L21.4645 6.82831C21.2692 7.02357 21.2692 7.34015 21.4645 7.53541C21.6597 7.73067 21.9763 7.73067 22.1716 7.53541L25.3536 4.35343ZM1 4.49988H25V3.49988H1V4.49988Z" fill="white"/>
</svg>
