<svg width="99" height="74" viewBox="0 0 99 74" fill="none" xmlns="http://www.w3.org/2000/svg">
<rect width="99" height="74" fill="white"/>
<g clip-path="url(#clip0_660_7)">
<path d="M37.2767 33.0704H49.4049C49.9463 33.0704 49.9463 33.0704 49.9463 33.6136C49.9463 34.1567 49.9463 34.7544 49.9463 35.3261C49.9463 35.612 49.8407 35.7029 49.5554 35.7029C48.0975 35.7029 46.6501 35.7029 45.1843 35.7029C44.7485 35.7029 44.7459 35.7029 44.7459 36.1395C44.7459 41.3526 44.7459 46.5647 44.7459 51.776C44.7459 51.8904 44.7459 52.0047 44.7459 52.1191C44.7491 52.154 44.7445 52.1892 44.7324 52.2222C44.7203 52.2552 44.7009 52.2851 44.6757 52.3099C44.6505 52.3347 44.6201 52.3538 44.5866 52.3657C44.553 52.3776 44.5173 52.3821 44.4818 52.379H42.073C41.8829 52.379 41.7772 52.2932 41.7799 52.0983C41.7799 51.9839 41.7799 51.8696 41.7799 51.7553V36.1811C41.7799 35.6977 41.7799 35.6977 41.2939 35.6977H33.2384C32.7841 35.6977 32.7841 35.6977 32.7841 36.1499V51.8176C32.7841 52.3841 32.7841 52.3841 32.2031 52.3841H30.3041C29.8155 52.3841 29.7996 52.366 29.7996 51.8982C29.7996 50.5079 29.7996 49.1176 29.7996 47.7246C29.7996 43.8733 29.7996 40.0212 29.7996 36.1681C29.7996 35.6977 29.7996 35.6977 29.3321 35.6977H25.0218C24.6309 35.6977 24.6071 35.6718 24.6045 35.2923C24.6045 34.7024 24.6045 34.1099 24.6045 33.5174C24.6045 33.1016 24.6362 33.0704 25.0508 33.0704H37.2767Z" fill="#10182A"/>
<path d="M61.9575 52.3841C61.5983 52.3841 61.2365 52.366 60.8799 52.3841C60.811 52.3964 60.7403 52.3951 60.6719 52.3803C60.6035 52.3655 60.5388 52.3374 60.4816 52.2978C60.4243 52.2581 60.3756 52.2076 60.3384 52.1493C60.3011 52.091 60.276 52.0259 60.2645 51.958C59.8736 50.7625 59.4484 49.5775 59.0522 48.3847C59.0322 48.2743 58.9697 48.1757 58.8777 48.1095C58.7857 48.0432 58.6714 48.0142 58.5583 48.0287C56.4349 48.0391 54.3131 48.0391 52.1932 48.0287C52.0797 48.0144 51.965 48.0441 51.8733 48.1115C51.7816 48.1789 51.7202 48.2788 51.7019 48.3899C51.3058 49.6035 50.8805 50.8119 50.4817 52.0281C50.4604 52.1396 50.3966 52.2389 50.3033 52.3056C50.21 52.3723 50.0943 52.4013 49.9799 52.3867C49.1876 52.3867 48.4163 52.3867 47.6372 52.3867C47.2727 52.3867 47.2331 52.3374 47.352 52.0073C48.3345 49.2561 49.3187 46.505 50.3048 43.7538C51.0636 41.6298 51.8234 39.5057 52.5841 37.3817C53.0674 36.0434 53.5613 34.7076 54.0446 33.3667C54.0665 33.276 54.1212 33.1962 54.1985 33.1422C54.2757 33.0881 54.3703 33.0636 54.4646 33.073C55.0773 33.073 55.6936 33.073 56.3134 33.073C56.4077 33.064 56.5022 33.0894 56.5787 33.1446C56.6552 33.1997 56.7083 33.2806 56.728 33.3719C57.9113 36.6801 59.1051 39.983 60.2936 43.2912C61.3201 46.1481 62.3449 49.0067 63.3679 51.867C63.3916 51.9346 63.4101 52.0047 63.4392 52.0723C63.5395 52.3088 63.4392 52.3971 63.2041 52.3919C62.7789 52.3789 62.3669 52.3841 61.9575 52.3841ZM58.0777 45.3676C57.1876 42.6259 56.3054 39.9103 55.4233 37.2076L55.3388 37.2206C54.4593 39.9233 53.5798 42.6259 52.6976 45.3676H58.0777Z" fill="#10182A"/>
<path d="M25.6504 52.3841H24.6362C24.1238 52.3841 24.1238 52.3841 23.9653 51.919C23.5665 50.7469 23.1598 49.5801 22.7768 48.4003C22.7669 48.342 22.7454 48.2861 22.7134 48.236C22.6814 48.1859 22.6396 48.1426 22.5905 48.1085C22.5414 48.0744 22.4858 48.0503 22.4271 48.0375C22.3685 48.0247 22.3078 48.0234 22.2486 48.0339C20.1357 48.0443 18.0228 48.0443 15.9098 48.0339C15.8509 48.0234 15.7904 48.0245 15.7318 48.0372C15.6733 48.0498 15.6179 48.0738 15.5688 48.1076C15.5196 48.1414 15.4778 48.1844 15.4457 48.2342C15.4136 48.284 15.3918 48.3396 15.3816 48.3977C14.9934 49.5957 14.5708 50.7807 14.1825 51.9787C14.1556 52.1089 14.079 52.2241 13.9685 52.3004C13.858 52.3768 13.7219 52.4086 13.5883 52.3893C12.8303 52.3711 12.0696 52.3893 11.309 52.3893C10.9524 52.3893 10.9154 52.34 11.0448 52.0047L14.4334 42.5973C15.1835 40.5028 15.9257 38.4056 16.6784 36.311C17.0323 35.3235 17.4021 34.3412 17.7586 33.3537C17.7787 33.2673 17.8299 33.191 17.9028 33.139C17.9756 33.0869 18.0651 33.0625 18.1548 33.0704C18.7781 33.0704 19.4014 33.0704 20.0221 33.0704C20.2862 33.0704 20.3734 33.203 20.4447 33.4057C20.8594 34.5491 21.2846 35.6899 21.694 36.8334C23.4899 41.8472 25.2824 46.861 27.0713 51.8748C27.2536 52.3945 27.2483 52.3945 26.6989 52.3945L25.6504 52.3841ZM16.4064 45.3676H21.7917C20.9016 42.6311 20.0221 39.9363 19.1505 37.2414H19.0449C18.1654 39.9388 17.2885 42.6311 16.3985 45.365L16.4064 45.3676Z" fill="#10182A"/>
<path d="M66.9607 39.245C67.6738 39.3593 68.2945 39.4762 68.9204 39.5516C70.4056 39.7157 71.9093 39.5378 73.3126 39.0319C75.1839 38.3827 76.8225 37.2112 78.0279 35.6605C79.2334 34.1098 79.9536 32.2471 80.1004 30.3002C80.2089 28.9712 80.0408 27.6345 79.6062 26.3717C79.1716 25.109 78.4797 23.9467 77.5728 22.9562C75.9374 21.0662 73.6246 19.8692 71.1152 19.6142C69.7281 19.4321 68.3174 19.5412 66.9763 19.9345C65.6351 20.3278 64.3939 20.9963 63.3344 21.8959C61.3407 23.5029 60.0595 25.809 59.7609 28.3277C59.7243 28.6052 59.7049 28.8847 59.7028 29.1645C59.7121 29.2628 59.6845 29.361 59.6251 29.4405C59.5657 29.52 59.4787 29.5753 59.3806 29.5959C59.172 29.6722 58.9675 29.759 58.7679 29.8558C58.4879 29.9779 58.4324 29.9493 58.4298 29.6453C58.4251 28.5224 58.5934 27.4052 58.929 26.3319C59.6143 24.1156 60.9762 22.1606 62.8299 20.7324C64.6836 19.3041 66.9391 18.4719 69.2902 18.3486C71.9609 18.1787 74.6044 18.962 76.7356 20.5549C77.9791 21.4406 79.0241 22.5686 79.8056 23.8687C80.5871 25.1688 81.0884 26.6132 81.2783 28.112C81.6406 30.3356 81.2616 32.6148 80.1981 34.6088C78.2806 38.1119 75.3252 40.2481 71.2578 40.7548C70.0819 40.8957 68.8909 40.858 67.7266 40.6431C67.407 40.5885 67.2671 40.4664 67.2988 40.1233C67.3304 39.7803 67.3357 39.4918 66.9607 39.245Z" fill="#10182A"/>
<path d="M65.9356 36.2876C66.337 36.4591 66.7279 36.654 67.1399 36.8074C68.1288 37.1804 69.1849 37.3497 70.243 37.305C71.301 37.2603 72.3385 37.0025 73.2912 36.5475C74.0517 36.1845 74.751 35.7085 75.3645 35.1364C76.6557 33.9935 77.4839 32.4302 77.6966 30.7342C77.8905 29.576 77.8048 28.3892 77.4465 27.2697C77.0882 26.1501 76.4672 25.1292 75.6339 24.2893C74.2875 22.8695 72.4469 22.0009 70.4788 21.8564C68.5107 21.7119 66.5595 22.3022 65.0138 23.5097C64.1911 24.135 63.506 24.918 62.9998 25.8113C62.4936 26.7047 62.1769 27.6899 62.0689 28.7071C62.0284 29.1938 62.0196 29.6825 62.0425 30.1702C62.0425 30.3781 62.0082 30.5834 61.7784 30.5886C61.6134 30.5647 61.4644 30.4779 61.3638 30.3469C61.1667 30.107 60.99 29.8514 60.8355 29.5829C60.7812 29.4714 60.7593 29.3473 60.7721 29.2243C60.9808 26.189 62.3568 23.7904 64.9187 22.0934C66.3944 21.121 68.1374 20.6168 69.9132 20.6485C71.4254 20.6461 72.9144 21.0151 74.245 21.7222C75.5757 22.4292 76.7059 23.4519 77.5333 24.6975C78.3606 25.9431 78.8588 27.3721 78.9828 28.8551C79.1068 30.3381 78.8526 31.8281 78.2433 33.1899C76.8382 36.1915 74.4137 37.9456 71.0858 38.4342C69.88 38.594 68.6539 38.5181 67.478 38.2107C67.2277 38.1596 66.9981 38.0374 66.8178 37.859C66.6375 37.6807 66.5144 37.4542 66.4638 37.2076C66.3661 36.8645 66.3951 36.4539 65.8511 36.3786L65.9356 36.2876Z" fill="#10182A"/>
<path d="M65.0163 32.27C64.7798 32.0995 64.5347 31.9408 64.2821 31.7944C64.1642 31.7353 64.0615 31.6505 63.9819 31.5464C63.9023 31.4424 63.8478 31.3219 63.8225 31.1941C63.8014 31.1084 63.7274 30.9758 63.6614 30.968C63.3603 30.9213 63.3101 30.7575 63.3735 30.5029C63.388 30.4264 63.3778 30.3473 63.3445 30.2768L63.2758 30.4977H63.1913C63.1513 30.1135 63.1337 29.7274 63.1385 29.3412C63.2073 27.6982 63.8907 26.1381 65.0575 24.9606C66.2242 23.7832 67.792 23.0715 69.4596 22.9623C71.1272 22.853 72.777 23.3539 74.0922 24.3687C75.4073 25.3835 76.2949 26.8407 76.5845 28.4603C76.9886 30.9446 76.2491 33.0938 74.2788 34.6764C73.1653 35.6061 71.7742 36.1532 70.3162 36.2348C68.8582 36.3164 67.413 35.928 66.1995 35.1286C65.7558 34.8401 65.3517 34.4893 64.9344 34.1619C64.8829 34.1343 64.8392 34.0947 64.8071 34.0464C64.7751 33.9982 64.7557 33.9429 64.7507 33.8854C64.7457 33.828 64.7553 33.7702 64.7786 33.7173C64.8019 33.6644 64.8382 33.618 64.8842 33.5823C65.0374 33.4134 65.2065 33.2445 64.9608 32.9716C64.879 32.8807 65.0269 32.5922 65.0691 32.3947C65.1669 32.5169 65.2567 32.6546 65.3597 32.7586C65.6273 33.0904 65.9157 33.4055 66.2233 33.7019C67.1081 34.4815 68.1276 35.0012 69.3319 34.9831C70.0982 35.0213 70.8662 34.9549 71.6139 34.7856C74.1362 34.0501 75.7077 31.519 75.4039 29.0034C75.3236 28.2577 75.0879 27.5364 74.7117 26.8843C74.3354 26.2322 73.8266 25.6635 73.217 25.2135C72.6075 24.7635 71.9102 24.4419 71.1687 24.2688C70.4272 24.0957 69.6574 24.0749 68.9073 24.2075C68.1573 24.3401 67.4431 24.6234 66.8092 25.0397C66.1754 25.456 65.6355 25.9964 65.2233 26.6271C64.8111 27.2577 64.5355 27.9652 64.4135 28.7054C64.2916 29.4456 64.3259 30.2025 64.5145 30.929C64.6573 31.3845 64.8249 31.8321 65.0163 32.27Z" fill="#10182A"/>
<path d="M79.9336 22.0986C79.7514 21.8959 79.5771 21.7114 79.4054 21.5191C78.0648 19.9835 76.359 18.798 74.4401 18.068C72.4027 17.2897 70.1941 17.0481 68.0327 17.3671C65.8713 17.6862 63.832 18.5548 62.1165 19.8871C59.6821 21.7374 58.0467 24.4231 57.5367 27.4078C57.4149 28.2689 57.354 29.1372 57.3545 30.0065C57.336 30.5263 57.3017 30.5809 56.7919 30.4535C55.9996 30.2534 56.0709 30.3912 56.0815 29.5674C56.101 26.2049 57.3813 22.9678 59.677 20.4769C61.9726 17.986 65.122 16.4166 68.5212 16.0696C69.0099 16.015 69.509 16.0956 70.0003 16.054C71.1967 15.9527 72.3509 16.1839 73.4919 16.4776C75.183 16.9093 76.769 17.6701 78.1562 18.7151C78.3978 18.8983 78.6144 19.1114 78.8006 19.3492C78.8642 19.4756 78.8802 19.6202 78.8455 19.7572C78.8251 19.8159 78.8179 19.8783 78.8246 19.94C78.8312 20.0017 78.8514 20.0612 78.8839 20.1145C78.9163 20.1677 78.9602 20.2133 79.0124 20.2481C79.0646 20.2829 79.1239 20.306 79.1862 20.3159C79.3516 20.3759 79.4919 20.4883 79.585 20.6356C79.7963 20.9994 80.0736 21.3502 80.0314 21.8102C80.0293 21.8617 80.0231 21.9129 80.0129 21.9635C79.9917 22.0113 79.9651 22.0567 79.9336 22.0986Z" fill="#10182A"/>
<path d="M81.492 24.4999C81.6249 24.5885 81.7503 24.6876 81.867 24.7961C82.2341 25.2119 82.3952 25.8356 83.0661 25.9526C83.1612 25.9682 83.2668 26.1371 83.2959 26.2514C83.6775 27.7327 83.8043 29.2663 83.6709 30.7888C83.582 31.9165 83.3368 33.0269 82.9419 34.0892C82.7676 34.5491 82.5141 34.9831 82.2922 35.4275C82.2761 35.4668 82.2461 35.4991 82.2077 35.5185C81.4576 35.8641 81.3916 36.6177 81.1512 37.2596C81.116 37.3962 81.0618 37.5274 80.9901 37.6494C78.6131 40.6899 75.5203 42.5116 71.659 43.0158C70.0121 43.2338 68.3385 43.1501 66.7227 42.7689C66.4586 42.7065 66.3688 42.6078 66.3978 42.3245C66.4823 41.4721 66.4665 41.4773 67.2958 41.6359C71.254 42.3947 74.8063 41.5284 77.9528 39.0371C79.2536 37.9801 80.3229 36.6743 81.0958 35.1988C81.8721 33.743 82.33 32.1434 82.4401 30.5029C82.5897 28.5602 82.2674 26.6103 81.4999 24.8143C81.4801 24.7663 81.4642 24.7167 81.4523 24.6662C81.4602 24.6097 81.4735 24.554 81.492 24.4999Z" fill="#10182A"/>
<path d="M52.6145 29.978C52.1215 29.7229 51.7176 29.3283 51.455 28.845C51.3362 28.5851 51.4365 28.2343 51.4682 27.925C51.8289 24.2294 53.3238 20.7293 55.7542 17.8895C58.1847 15.0497 61.4357 13.0047 65.0754 12.026C65.2005 11.9934 65.3323 11.9948 65.4566 12.0301C65.581 12.0653 65.6933 12.133 65.7817 12.2261C65.87 12.3191 65.931 12.434 65.9583 12.5585C65.9856 12.683 65.978 12.8124 65.9364 12.933C65.9074 13.0291 65.7463 13.1097 65.6301 13.1513C64.637 13.5073 63.6254 13.8191 62.6561 14.2115C61.2559 14.8091 59.9572 15.6145 58.8053 16.5998C56.9632 18.1223 55.466 20.0079 54.4105 22.135C53.478 23.965 52.9079 25.9529 52.7307 27.9926C52.6858 28.5123 52.6858 29.0477 52.6594 29.5778C52.6594 29.6947 52.6356 29.8117 52.6145 29.978Z" fill="#10182A"/>
<path d="M53.7527 29.5361C53.7726 26.0687 54.9416 22.7023 57.0823 19.9479C59.223 17.1934 62.2184 15.2013 65.6141 14.2738C65.7806 14.2233 65.9604 14.2382 66.1159 14.3154C66.3642 14.4219 66.6759 14.3752 66.9505 14.4401C67.2729 14.5202 67.5897 14.6209 67.8987 14.7416C67.9727 14.7702 68.0176 14.8715 68.0757 14.9365C67.9957 14.9942 67.9064 15.0381 67.8116 15.0664C66.1404 15.2943 64.5225 15.808 63.0311 16.5841C59.7428 18.2588 57.2103 21.0834 55.9317 24.5024C55.2776 26.1956 54.9663 27.9983 55.0152 29.809C55.0152 29.9701 54.9888 30.217 54.8831 30.2794C54.581 30.4392 54.2622 30.5664 53.9323 30.6588C53.9059 30.6588 53.7791 30.5002 53.7712 30.3989C53.7395 30.1182 53.7527 29.8272 53.7527 29.5361Z" fill="#10182A"/>
<path d="M61.5676 12.1221C60.9337 12.4678 60.3421 12.7614 59.7769 13.1018C56.1778 15.2335 53.3726 18.4493 51.7769 22.2727C51.1907 23.676 50.7707 25.1409 50.525 26.6386C50.487 26.7648 50.4319 26.8855 50.3612 26.9972C50.2293 26.8886 50.104 26.7723 49.9862 26.649C49.9465 26.6074 49.9677 26.5113 49.9677 26.4385C49.9677 26.2306 49.9386 26.0539 49.6719 26.0019C49.4553 25.9603 49.4078 25.8044 49.4553 25.5965C49.8704 23.5253 50.6137 21.5312 51.658 19.687C52.7405 17.7445 54.1446 15.9932 55.8125 14.5052C56.56 13.8373 57.3972 13.2526 58.1896 12.6523C58.3343 12.588 58.4956 12.569 58.6518 12.5977C58.7561 12.6153 58.8563 12.6514 58.9476 12.7042C59.0846 12.7869 59.2465 12.8204 59.4059 12.7991C59.5652 12.7778 59.7121 12.703 59.8218 12.5873C60.1783 12.2599 61.0895 12.0416 61.5676 12.1221Z" fill="#10182A"/>
<path d="M66.4376 43.8395C66.847 43.9097 67.2563 43.9876 67.6684 44.0474C70.1566 44.4193 72.7001 44.1646 75.0612 43.307C77.4223 42.4495 79.524 41.0171 81.1699 39.1436C81.3495 38.9357 81.471 38.9383 81.6321 39.1436C81.7932 39.3489 82.0573 39.458 81.9992 39.7569C81.9779 39.9371 81.9136 40.1098 81.8117 40.261C80.7685 41.4211 79.5444 42.4106 78.1854 43.1924C76.2832 44.3248 74.159 45.0484 71.9523 45.3156C70.4858 45.4941 69.0017 45.4801 67.539 45.274C67.4367 45.2562 67.3436 45.2049 67.2748 45.1285C67.0503 44.8504 66.8443 44.5567 66.6304 44.2657L66.3848 43.9201L66.4376 43.8395Z" fill="#10182A"/>
<path d="M81.9177 41.7528C81.9908 42.0403 81.954 42.3443 81.8143 42.6069C81.6745 42.8694 81.4416 43.0723 81.1597 43.1769C80.9378 43.2445 80.7081 43.2757 80.4809 43.3224C80.3072 43.3431 80.1412 43.405 79.9972 43.5028C79.8532 43.6006 79.7355 43.7313 79.6542 43.8838C79.4981 44.1805 79.2369 44.4107 78.92 44.5308C78.5291 44.6972 78.4842 44.8635 78.7061 45.2091C78.8328 45.4066 78.8117 45.5106 78.5978 45.6223C76.4746 46.7554 74.1371 47.4463 71.7308 47.6519C70.6743 47.7351 69.6179 47.7091 68.5429 47.7117C68.0279 47.7117 67.9724 47.6415 67.9223 47.1426C67.851 46.4097 67.851 46.4071 68.5984 46.4669C70.9825 46.6473 73.3787 46.3365 75.6339 45.5543C77.8891 44.7722 79.9537 43.5359 81.6958 41.9243C81.7592 41.8698 81.8279 41.823 81.9177 41.7528Z" fill="#10182A"/>
<path d="M68.6457 48.8109C70.4043 48.9048 72.1679 48.7773 73.8936 48.4315C75.6283 48.0816 77.3054 47.4975 78.8775 46.6956C78.89 46.8494 78.85 47.0029 78.7639 47.1318C78.6778 47.2608 78.5505 47.3578 78.4021 47.4076C78.2647 47.4596 78.1168 47.4882 77.9742 47.5272C77.866 47.5478 77.7671 47.6013 77.6913 47.68C77.6155 47.7588 77.5667 47.8589 77.5516 47.9663C77.5173 48.1171 77.3509 48.2262 77.2452 48.3743C77.203 48.3743 77.2452 48.3743 77.2717 48.3743L77.5358 48.5043C77.4592 48.577 77.3958 48.6836 77.3033 48.7174C75.7899 49.3029 74.2064 49.6951 72.5915 49.8842C71.7015 49.9829 70.8061 50.0063 69.9134 50.0713C69.7941 50.0907 69.6716 50.0673 69.5683 50.0053C69.465 49.9433 69.3879 49.8468 69.3508 49.7335C69.2347 49.5284 69.0887 49.3411 68.9177 49.1773C68.8232 49.0824 68.7207 48.9955 68.6113 48.9175L68.6457 48.8109Z" fill="#10182A"/>
<path d="M84.458 33.0158C84.4791 32.8469 84.4818 32.7559 84.5003 32.652C84.8304 31.1068 84.9044 29.5193 84.7195 27.9509C84.664 27.5195 84.6746 27.5169 85.1024 27.4104L85.2266 27.3792C86.0189 27.1349 85.9291 27.1817 85.9687 27.8989C86.0295 29.0346 85.9872 30.1754 85.9687 31.3162C85.9538 31.4179 85.9291 31.518 85.8948 31.6151C85.8513 31.7522 85.8291 31.895 85.8288 32.0387C85.8657 32.2986 85.8103 32.4259 85.5514 32.5065C85.2856 32.6047 85.0262 32.7192 84.7749 32.8495C84.6878 32.8833 84.6112 32.9352 84.458 33.0158Z" fill="#10182A"/>
<path d="M76.1732 50.3364C76.1384 50.4074 76.0959 50.4745 76.0464 50.5365C75.6291 50.9003 75.2277 51.2901 74.7787 51.6097C74.4044 51.8692 73.9795 52.0494 73.5307 52.1389C73.082 52.2283 72.6193 52.2252 72.1719 52.1295C72.0847 52.1139 71.9579 52.1009 71.9077 52.1477C71.4825 52.5089 70.9807 52.3218 70.5159 52.3244C70.2517 52.3244 69.7922 51.6981 69.7763 51.4174C69.7605 51.1368 69.9454 51.1576 70.1144 51.1576C70.5264 51.1316 70.9358 51.1134 71.3452 51.0978C72.8502 51.0168 74.3417 50.7737 75.7929 50.3728C75.8748 50.352 75.9566 50.3312 76.0385 50.3182C76.0596 50.2922 76.0913 50.313 76.1732 50.3364Z" fill="#10182A"/>
<path d="M86.5841 43.8447L85.8155 45.4923C85.8155 45.5209 85.76 45.5443 85.7627 45.5651C85.8129 46.2174 85.2054 46.5604 85.0152 47.1061C84.9433 47.3148 84.8143 47.5 84.6423 47.6412C84.4704 47.7824 84.2622 47.8742 84.0407 47.9065C83.8343 47.9181 83.6315 47.8498 83.4756 47.7163C83.3197 47.5828 83.2229 47.3946 83.2061 47.1919C83.2108 47.0495 83.2467 46.9099 83.3115 46.7825C83.3762 46.6551 83.4682 46.543 83.5811 46.4538C84.5002 45.6456 85.3824 44.7985 86.2777 43.9669L86.4784 43.7823L86.5841 43.8447Z" fill="#10182A"/>
<path d="M86.7038 40.1624C87.0841 40.6483 87.1026 41.1551 86.8068 41.5527C86.0089 42.6242 85.1115 43.6203 84.126 44.5282C84.0653 44.5828 83.9966 44.6296 83.8619 44.7335C83.8382 44.0474 83.5661 43.4341 83.9491 42.8234C84.0551 42.6962 84.1993 42.6052 84.3611 42.5636C84.5548 42.5135 84.7515 42.4753 84.9501 42.4492C85.1021 42.4303 85.2463 42.3723 85.3683 42.2811C85.4902 42.1898 85.5856 42.0685 85.6447 41.9295C85.8098 41.6488 86.0064 41.3872 86.231 41.1499C86.268 41.1031 86.3393 41.0329 86.3261 41.0043C86.1439 40.5859 86.6061 40.495 86.7038 40.1624Z" fill="#10182A"/>
<path d="M65.3495 49.0734C65.7814 49.0828 66.1926 49.2574 66.4958 49.5601C66.799 49.8629 66.9705 50.2699 66.9738 50.695C66.9738 51.1216 66.8016 51.5308 66.495 51.8324C66.1884 52.1341 65.7726 52.3036 65.339 52.3036C64.9054 52.3036 64.4895 52.1341 64.1829 51.8324C63.8763 51.5308 63.7041 51.1216 63.7041 50.695C63.7048 50.2656 63.8783 49.8539 64.1866 49.55C64.495 49.2461 64.9131 49.0747 65.3495 49.0734ZM66.1736 51.6227C66.2985 51.4334 66.4037 51.2323 66.4879 51.0224C66.5362 50.8649 66.5511 50.6992 66.5315 50.5358C66.5119 50.3724 66.4583 50.2147 66.3741 50.0725C66.2898 49.9304 66.1767 49.8068 66.0418 49.7096C65.9069 49.6124 65.753 49.5435 65.5899 49.5074C65.438 49.4715 65.2803 49.4663 65.1262 49.4919C64.9722 49.5176 64.825 49.5736 64.6936 49.6566C64.5621 49.7396 64.449 49.8479 64.3611 49.975C64.2732 50.1021 64.2124 50.2453 64.1821 50.3961C64.1175 50.6496 64.1321 50.9165 64.224 51.1617C64.3158 51.407 64.4808 51.6193 64.6972 51.7708C64.9217 51.8992 65.1807 51.9568 65.4395 51.9359C65.6983 51.915 65.9443 51.8166 66.1445 51.6539L66.1736 51.6227Z" fill="#10182A"/>
<path d="M53.3502 56.8514C53.2783 57.0294 53.1954 57.203 53.1019 57.3711C53.0438 57.4647 52.9223 57.5764 52.8378 57.5764C52.7533 57.5764 52.6318 57.4595 52.5737 57.3633C52.474 57.1487 52.3593 56.9412 52.2304 56.7422C52.2304 57.0307 52.2304 57.3165 52.2304 57.605C52.2304 57.7531 52.2304 57.9091 52.0164 57.9195C51.8025 57.9298 51.7734 57.7687 51.7734 57.605C51.7734 56.9813 51.7734 56.3576 51.7734 55.7365C51.7734 55.63 51.887 55.5286 51.9478 55.4247C52.0587 55.4948 52.2119 55.5416 52.2726 55.643C52.4681 56.0302 52.6292 56.4226 52.8378 56.9137C53.0174 56.498 53.1653 56.1497 53.3159 55.8041C53.3476 55.7261 53.3634 55.6274 53.4215 55.5806C53.5053 55.5005 53.6143 55.451 53.7305 55.4403C53.7992 55.4403 53.9075 55.591 53.9101 55.6768C53.926 56.3394 53.9286 57.0047 53.9101 57.6674C53.9101 57.7531 53.7517 57.8363 53.6671 57.9272C53.5853 57.8389 53.4479 57.7583 53.4347 57.6674C53.4189 57.3999 53.4189 57.1318 53.4347 56.8644L53.3502 56.8514Z" fill="#10182A"/>
<path d="M23.6432 56.9371V55.7651C23.6432 55.604 23.6432 55.4351 23.873 55.4351C24.1028 55.4351 24.1002 55.6092 24.1002 55.7651C24.1002 56.3784 24.1002 56.9917 24.1002 57.6024C24.1002 57.7115 24.0024 57.9064 23.9417 57.9116C23.8727 57.9133 23.8041 57.9002 23.7408 57.8733C23.6774 57.8463 23.6207 57.8063 23.5746 57.7557C23.2735 57.3217 23.0041 56.8644 22.6607 56.4278C22.6607 56.815 22.6607 57.2074 22.6607 57.5894C22.6607 57.7427 22.6845 57.922 22.4468 57.9298C22.2091 57.9376 22.2012 57.7531 22.2012 57.5868C22.2012 56.9839 22.2012 56.381 22.2012 55.7807C22.2285 55.6604 22.2777 55.5459 22.3464 55.4429C22.4838 55.5104 22.6713 55.5442 22.7479 55.6534C23.0463 56.0743 23.3078 56.5187 23.5851 56.9527L23.6432 56.9371Z" fill="#10182A"/>
<path d="M73.2648 56.4381C73.2648 56.8253 73.2648 57.2178 73.2648 57.605C73.2648 57.7609 73.2807 57.935 73.043 57.9402C72.8053 57.9454 72.8106 57.7739 72.8106 57.6154C72.8106 56.9943 72.8106 56.3706 72.8106 55.7495C72.8106 55.6481 72.9136 55.4636 72.9611 55.4636C73.0982 55.4662 73.2289 55.5212 73.3256 55.6169C73.6293 56.0535 73.9014 56.5083 74.25 56.9501C74.25 56.5629 74.25 56.1705 74.25 55.7937C74.25 55.6273 74.2315 55.4376 74.4877 55.4454C74.7439 55.4532 74.7043 55.6299 74.7069 55.7833C74.7069 56.3966 74.7069 57.0073 74.7069 57.618C74.7069 57.7271 74.5986 57.9194 74.5405 57.9194C74.472 57.919 74.4043 57.9039 74.3423 57.8751C74.2803 57.8464 74.2254 57.8048 74.1813 57.7531C73.8802 57.3217 73.6108 56.8669 73.3282 56.4225L73.2648 56.4381Z" fill="#10182A"/>
<path d="M48.6097 57.8674C48.3244 57.9792 48.1369 57.9688 48.0181 57.7115C47.9349 57.5088 47.8332 57.314 47.7143 57.1294C47.6509 57.0384 47.5057 57.002 47.3947 56.9423C47.328 57.0309 47.2755 57.1291 47.2389 57.2333C47.2099 57.384 47.2548 57.5504 47.2178 57.6959C47.1995 57.7465 47.1702 57.7924 47.1318 57.8306C47.0935 57.8688 47.0471 57.8982 46.9959 57.9168C46.9457 57.9324 46.7899 57.7946 46.7873 57.7245C46.7714 57.0306 46.7714 56.3342 46.7873 55.6455C46.7873 55.5727 46.9405 55.4558 47.0329 55.4454C47.2852 55.4259 47.5386 55.4259 47.7909 55.4454C47.9347 55.4385 48.077 55.4754 48.1986 55.5513C48.3201 55.6271 48.4148 55.7381 48.4697 55.869C48.5377 56.0061 48.5587 56.1613 48.5297 56.3111C48.5006 56.461 48.4231 56.5977 48.3086 56.7006C48.2729 56.7251 48.2426 56.7564 48.2197 56.7928C48.1968 56.8292 48.1816 56.8698 48.1752 56.9121C48.1688 56.9544 48.1712 56.9976 48.1823 57.039C48.1934 57.0804 48.213 57.1191 48.2399 57.1528C48.3746 57.3685 48.4829 57.6127 48.6097 57.8674ZM47.6483 55.8742C47.4317 55.8742 47.2231 55.8456 47.2257 56.1704C47.2257 56.4147 47.3181 56.4979 47.5585 56.4927C47.9071 56.4927 48.0999 56.3731 48.0867 56.1497C48.0682 55.869 47.849 55.8794 47.6483 55.8742Z" fill="#10182A"/>
<path d="M16.993 57.8752C16.6734 57.9895 16.4648 57.948 16.3644 57.6569C16.2982 57.4622 16.2096 57.2756 16.1003 57.1008C16.0611 57.0551 16.0121 57.0186 15.9569 56.9939C15.9016 56.9692 15.8414 56.9569 15.7807 56.9578C15.7253 56.9578 15.6434 57.1138 15.6275 57.2177C15.6011 57.3684 15.646 57.5348 15.6064 57.6803C15.58 57.7816 15.4611 57.857 15.3819 57.9402C15.308 57.857 15.1759 57.779 15.1733 57.6933C15.1548 57.0306 15.1733 56.3653 15.1733 55.7027C15.1733 55.5207 15.2578 55.4428 15.4374 55.4428C15.7015 55.4428 15.9867 55.4298 16.2588 55.4428C16.3982 55.4494 16.532 55.4988 16.6415 55.5841C16.7509 55.6694 16.8304 55.7863 16.8689 55.9184C16.9288 56.0491 16.9447 56.1952 16.9143 56.3354C16.8839 56.4757 16.8087 56.6027 16.6998 56.698C16.4885 56.8721 16.5255 57.0046 16.6444 57.1995C16.7632 57.3944 16.8742 57.6335 16.993 57.8752ZM16.0396 55.8742C15.823 55.8742 15.6117 55.8456 15.6143 56.1704C15.6143 56.4121 15.7068 56.4979 15.9471 56.4927C16.2957 56.4927 16.4885 56.3757 16.4753 56.1496C16.4569 55.869 16.2403 55.8794 16.0396 55.8742Z" fill="#10182A"/>
<path d="M28.9594 57.8805C28.6504 57.9844 28.4549 57.9506 28.3387 57.683C28.2695 57.4878 28.181 57.2998 28.0746 57.1216C27.9899 57.0289 27.8732 56.9705 27.7471 56.9579C27.7128 56.9579 27.6203 57.119 27.6045 57.2178C27.5781 57.3815 27.6045 57.553 27.5834 57.7141C27.5649 57.7973 27.4355 57.9298 27.3853 57.9194C27.2928 57.8987 27.1555 57.7869 27.1529 57.7115C27.1352 57.0289 27.1352 56.3446 27.1529 55.6586C27.1529 55.5806 27.3166 55.4559 27.417 55.4429C27.6692 55.4233 27.9227 55.4233 28.175 55.4429C28.314 55.4397 28.4506 55.4796 28.5653 55.5571C28.68 55.6345 28.7671 55.7455 28.8141 55.8742C28.8814 56.0059 28.9044 56.1551 28.8797 56.3004C28.855 56.4457 28.7839 56.5795 28.6768 56.6825C28.6345 56.7098 28.5987 56.7457 28.5719 56.7879C28.545 56.8301 28.5278 56.8775 28.5212 56.9268C28.5147 56.9762 28.5191 57.0263 28.5341 57.0738C28.5491 57.1214 28.5744 57.1652 28.6081 57.2022C28.727 57.4049 28.8326 57.6362 28.9594 57.8805ZM27.9029 56.4875C28.2569 56.4875 28.447 56.3654 28.4312 56.1471C28.4074 55.8717 28.1935 55.8872 27.9875 55.8717C27.7814 55.8561 27.5728 55.8716 27.5781 56.1887C27.5886 56.4382 27.7154 56.5109 27.9029 56.4875Z" fill="#10182A"/>
<path d="M39.1255 57.0359C39.1889 56.9501 39.2206 56.8618 39.2866 56.828C39.3269 56.807 39.3714 56.7947 39.417 56.792C39.4625 56.7894 39.5081 56.7963 39.5507 56.8124C39.5812 56.8344 39.6056 56.8635 39.6217 56.897C39.6378 56.9306 39.6452 56.9676 39.6432 57.0047C39.5983 57.1606 39.4609 57.3088 39.4741 57.4517C39.4873 57.5946 39.6379 57.7116 39.7647 57.9065C39.5851 57.9065 39.4292 57.9558 39.3553 57.9065C39.1493 57.7454 38.9829 57.8207 38.7795 57.9065C38.6105 57.9842 38.419 58.0008 38.2388 57.9532C38.0586 57.9057 37.9012 57.7971 37.7944 57.6466C37.6847 57.4923 37.6355 57.3041 37.6559 57.1168C37.6763 56.9295 37.7649 56.7559 37.9053 56.6279C38.0611 56.4876 38.0268 56.368 37.9634 56.2225C37.911 56.0964 37.9059 55.9561 37.9489 55.8266C37.992 55.6971 38.0804 55.5869 38.1985 55.5156C38.3093 55.4525 38.438 55.4265 38.5651 55.4415C38.6923 55.4565 38.8111 55.5117 38.9036 55.5988C38.9985 55.6976 39.0566 55.825 39.0686 55.9604C39.0806 56.0958 39.0457 56.2312 38.9697 56.3446C38.732 56.6773 38.732 56.6773 39.1255 57.0359ZM38.8112 57.3685C38.6852 57.1949 38.5494 57.0283 38.4045 56.8696C38.3728 56.8358 38.2249 56.8696 38.1773 56.8982C38.1384 56.9287 38.1063 56.9668 38.0831 57.0102C38.0599 57.0535 38.0461 57.1012 38.0427 57.15C38.0392 57.1989 38.0461 57.248 38.0629 57.2941C38.0797 57.3402 38.1061 57.3824 38.1404 57.4179C38.2909 57.6024 38.5418 57.5842 38.8112 57.3685ZM38.4679 56.2849C38.5577 56.1549 38.6342 56.0874 38.6422 56.025C38.6501 55.9626 38.5603 55.9054 38.5128 55.8483C38.4494 55.9003 38.3411 55.9444 38.3305 56.0042C38.3199 56.064 38.3886 56.1419 38.4679 56.2849Z" fill="#10182A"/>
<path d="M42.3799 56.6721C42.401 56.2719 42.4169 55.8925 42.7708 55.5962C42.8883 55.5043 43.0277 55.4436 43.1759 55.42C43.324 55.3963 43.4759 55.4104 43.6168 55.461C43.7578 55.5116 43.8833 55.597 43.9812 55.7089C44.079 55.8209 44.1461 55.9556 44.1759 56.1004C44.2168 56.4787 44.2168 56.8603 44.1759 57.2386C44.1547 57.4319 44.0624 57.6109 43.9165 57.7421C43.7706 57.8732 43.5811 57.9474 43.3835 57.9507C43.1827 57.9724 42.9805 57.9236 42.8128 57.8128C42.645 57.7019 42.5226 57.5363 42.467 57.3452C42.4245 57.1227 42.3954 56.8979 42.3799 56.6721ZM42.8368 56.6955C42.8456 56.8804 42.884 57.0628 42.9504 57.236C42.9938 57.3009 43.0515 57.3553 43.1191 57.3953C43.1868 57.4353 43.2627 57.4599 43.3413 57.4673C43.468 57.4673 43.6846 57.3114 43.6978 57.2074C43.7438 56.8624 43.7438 56.513 43.6978 56.1679C43.682 56.0614 43.4654 55.9081 43.336 55.9081C43.2581 55.9184 43.1836 55.9457 43.1178 55.9879C43.052 56.0302 42.9966 56.0864 42.9557 56.1523C42.8887 56.3274 42.8487 56.5114 42.8368 56.6981V56.6955Z" fill="#10182A"/>
<path d="M70.6475 56.6695C70.6475 56.5239 70.6475 56.3784 70.6475 56.2329C70.6529 56.0337 70.7308 55.8432 70.867 55.6958C71.0032 55.5484 71.1887 55.4541 71.3896 55.4299C71.8545 55.3727 72.2876 55.591 72.3563 56.0302C72.425 56.4781 72.425 56.9336 72.3563 57.3815C72.2982 57.7687 71.8624 57.987 71.4213 57.948C71.2256 57.9286 71.0427 57.8433 70.9036 57.7064C70.7645 57.5695 70.6777 57.3896 70.658 57.197C70.6422 57.0229 70.658 56.8462 70.658 56.6772L70.6475 56.6695ZM71.1123 56.6954H71.0938C71.0938 56.8384 71.0938 56.9839 71.1176 57.1268C71.144 57.3399 71.2787 57.4958 71.4873 57.4699C71.6379 57.4491 71.8756 57.3243 71.8914 57.21C71.9377 56.8563 71.9377 56.4982 71.8914 56.1445C71.8703 55.9418 71.6775 55.8483 71.4583 55.8846C71.3623 55.8906 71.2722 55.9324 71.2065 56.0014C71.1407 56.0705 71.1042 56.1616 71.1044 56.2563C71.1017 56.4044 71.1123 56.5499 71.1123 56.698V56.6954Z" fill="#10182A"/>
<path d="M63.001 56.698C63.001 57.0436 63.067 57.4022 62.7659 57.6907C62.2747 58.1611 61.4163 57.9636 61.2869 57.3035C61.2169 56.8862 61.2169 56.4604 61.2869 56.0431C61.3529 55.6013 61.7781 55.37 62.272 55.422C62.4668 55.4474 62.6463 55.5395 62.7791 55.682C62.9119 55.8245 62.9895 56.0085 62.9983 56.2016C63.0089 56.3731 63.001 56.5395 63.001 56.698ZM62.552 56.685C62.552 56.5296 62.5441 56.3744 62.5282 56.2198C62.4992 56.0093 62.3539 55.856 62.1479 55.8898C62 55.9132 61.7728 56.0457 61.757 56.1497C61.709 56.4943 61.7046 56.8434 61.7438 57.1891C61.7623 57.397 61.9498 57.4854 62.1664 57.475C62.2629 57.473 62.3548 57.4342 62.4228 57.3668C62.4908 57.2994 62.5295 57.2087 62.5309 57.1138C62.5493 56.9838 62.5467 56.8357 62.552 56.698V56.685Z" fill="#10182A"/>
<path d="M33.0851 56.6513C33.0851 56.3524 33.0851 56.051 33.0851 55.7521C33.0851 55.5338 33.1565 55.4195 33.3942 55.4273C33.7322 55.4273 34.0703 55.4143 34.4057 55.4273C34.5034 55.4273 34.5906 55.5624 34.6698 55.6326C34.5827 55.7105 34.5008 55.8327 34.4057 55.8509C34.197 55.873 33.9867 55.8783 33.7771 55.8665C33.5473 55.8665 33.5394 56.0198 33.5394 56.1861C33.5394 56.3524 33.579 56.472 33.7824 56.4668C33.9585 56.4571 34.1352 56.4614 34.3106 56.4798C34.3899 56.4798 34.4533 56.5941 34.5246 56.6539C34.4533 56.724 34.3899 56.8384 34.308 56.854C34.1329 56.8769 33.9559 56.8821 33.7798 56.8696C33.5764 56.8696 33.5394 56.9917 33.5421 57.1554C33.5447 57.3192 33.5421 57.4751 33.7798 57.4751C33.9903 57.4633 34.2014 57.4685 34.411 57.4907C34.5087 57.5089 34.5906 57.6336 34.6751 57.709C34.5827 57.7817 34.4955 57.9065 34.3952 57.9143C34.0624 57.9403 33.7243 57.9143 33.3862 57.9273C33.1485 57.9273 33.0746 57.8181 33.0772 57.6024C33.0904 57.2932 33.0851 56.9735 33.0851 56.6513Z" fill="#10182A"/>
<path d="M60.1257 55.3987C60.3167 55.4455 60.5038 55.5064 60.6856 55.5806C60.722 55.6108 60.7515 55.6481 60.7724 55.6902C60.7934 55.7322 60.8052 55.7781 60.8071 55.8249C60.7246 55.9111 60.6146 55.967 60.4954 55.9834C60.3238 55.9834 60.1495 55.8976 59.9672 55.9106C59.9111 55.924 59.8595 55.9517 59.8178 55.9909C59.7761 56.0301 59.7456 56.0796 59.7295 56.1341C59.7384 56.1884 59.7596 56.2399 59.7917 56.2849C59.8237 56.3299 59.8656 56.3672 59.9144 56.394C60.052 56.4462 60.1958 56.4812 60.3423 56.4979C60.5155 56.526 60.6727 56.6144 60.7852 56.747C60.8977 56.8796 60.958 57.0477 60.955 57.2204C60.9607 57.3095 60.9481 57.3988 60.9181 57.483C60.888 57.5671 60.841 57.6445 60.7798 57.7105C60.7187 57.7764 60.6448 57.8296 60.5623 57.8668C60.4799 57.9041 60.3907 57.9246 60.3 57.9272C59.971 57.9151 59.6454 57.8565 59.3333 57.7531C59.2647 57.7349 59.2383 57.5686 59.1934 57.4699C59.3026 57.4156 59.4205 57.3804 59.542 57.3659C59.7418 57.415 59.9447 57.4506 60.1495 57.4725C60.2657 57.4725 60.374 57.3113 60.4849 57.2126C60.3963 57.1183 60.3 57.0314 60.197 56.9527C60.1127 56.9188 60.0236 56.8977 59.9329 56.8903C59.4416 56.7812 59.2039 56.4901 59.2594 56.0717C59.3149 55.6534 59.6133 55.4169 60.1257 55.3987Z" fill="#10182A"/>
<path d="M77.2348 16.8128C75.6863 15.9672 73.9998 15.3938 72.251 15.1185V15.0249C72.4572 15.0015 72.6654 15.0015 72.8716 15.0249C73.487 15.1678 74.0945 15.3368 74.702 15.5109C74.7827 15.5423 74.8704 15.5521 74.9562 15.5394C75.0421 15.5266 75.1229 15.4916 75.1906 15.4381C75.6475 15.1211 76.1599 15.2354 76.659 15.3316C76.6839 15.3404 76.7065 15.3542 76.7256 15.3721C76.7447 15.39 76.7598 15.4116 76.77 15.4355C76.9496 15.8617 77.1265 16.2931 77.2982 16.7349L77.2348 16.8128Z" fill="#10182A"/>
<path d="M50.4743 57.9973C50.2419 57.9115 50.0015 57.8388 49.7797 57.7374C49.7189 57.7088 49.6555 57.5243 49.6819 57.5035C49.76 57.4215 49.8665 57.3714 49.9804 57.3632C50.1864 57.3788 50.3898 57.4827 50.5905 57.4775C50.6612 57.4664 50.7283 57.4392 50.7865 57.3982C50.8447 57.3571 50.8925 57.3034 50.9259 57.2411C50.9893 57.0618 50.8308 56.9682 50.6618 56.937C50.5258 56.9169 50.3909 56.89 50.2577 56.8565C50.0941 56.813 49.9513 56.7141 49.8547 56.5772C49.758 56.4402 49.7137 56.274 49.7295 56.108C49.7308 55.9338 49.801 55.7669 49.9253 55.6427C50.0495 55.5185 50.218 55.4468 50.3951 55.4427C50.6647 55.4535 50.9314 55.5016 51.1874 55.5857C51.2429 55.6013 51.3142 55.7806 51.2851 55.817C51.2222 55.9039 51.1276 55.9635 51.021 55.9833C50.8705 55.9833 50.7094 55.8767 50.5667 55.8975C50.4241 55.9183 50.329 56.0509 50.2128 56.134C50.2942 56.235 50.3824 56.3305 50.4769 56.4199C50.5271 56.4614 50.6169 56.4562 50.6882 56.4692C51.2165 56.5732 51.4603 56.853 51.4198 57.3086C51.3644 57.7374 51.0553 57.9661 50.4743 57.9973Z" fill="#10182A"/>
<path d="M46.3432 56.4381C46.3432 56.6668 46.3432 56.8955 46.3432 57.1242C46.3491 57.3344 46.2721 57.5386 46.1283 57.6941C45.9846 57.8497 45.7852 57.9444 45.572 57.9584C45.0437 58.0026 44.6476 57.7401 44.5974 57.2411C44.5555 56.7138 44.5467 56.1844 44.571 55.6559C44.571 55.5858 44.7083 55.5156 44.7796 55.4454C44.8562 55.5234 44.9962 55.5962 45.0015 55.6793C45.0253 56.1133 45.0015 56.5499 45.02 56.9787C45.02 57.3113 45.1784 57.4802 45.4505 57.4984C45.7225 57.5166 45.8731 57.3685 45.8836 57.0774C45.8836 56.6642 45.8836 56.2484 45.8836 55.8326C45.8836 55.6663 45.8334 55.4454 46.1187 55.4506C46.4039 55.4558 46.3326 55.6585 46.3379 55.8171C46.3379 56.0249 46.3379 56.2328 46.3379 56.4407L46.3432 56.4381Z" fill="#10182A"/>
<path d="M58.0254 57.9973C57.789 57.9239 57.5571 57.8371 57.3308 57.7375C57.2647 57.7063 57.204 57.5114 57.233 57.4776C57.3144 57.3974 57.4243 57.3517 57.5394 57.3502C57.7533 57.3684 57.9646 57.4672 58.1759 57.4672C58.2789 57.4672 58.3793 57.3113 58.4797 57.2255C58.4062 57.1189 58.3172 57.0235 58.2156 56.9422C58.0972 56.8999 57.9738 56.8729 57.8484 56.8617C57.6658 56.8234 57.5052 56.7171 57.4004 56.565C57.2955 56.4129 57.2545 56.2268 57.2859 56.0457C57.2974 55.8722 57.3778 55.7101 57.5098 55.5944C57.6417 55.4787 57.8145 55.4186 57.9911 55.4272C58.2198 55.4326 58.4463 55.4738 58.6619 55.5493C58.7084 55.5758 58.7472 55.6136 58.7746 55.6591C58.8019 55.7046 58.8167 55.7563 58.8177 55.8092C58.786 55.9599 58.6751 56.0405 58.4823 55.9651C58.3287 55.9023 58.1619 55.8774 57.9963 55.8924C57.9416 55.9095 57.8921 55.94 57.8525 55.9808C57.8128 56.0217 57.7842 56.0717 57.7692 56.1263C57.7692 56.2146 57.8722 56.3341 57.962 56.3861C58.0575 56.4291 58.1608 56.4529 58.2657 56.4563C58.794 56.5576 58.9973 56.8279 58.9524 57.3217C58.9155 57.7115 58.6434 57.9168 58.1442 57.9324C58.1125 57.9324 58.0809 57.9324 58.0492 57.9324L58.0254 57.9973Z" fill="#10182A"/>
<path d="M68.049 57.8986C67.8298 57.9766 67.637 57.9662 67.5657 57.6933C67.4944 57.4205 67.262 57.4335 67.0375 57.4335C66.813 57.4335 66.5964 57.4335 66.5092 57.7141C66.4948 57.761 66.4701 57.8042 66.4368 57.8406C66.4034 57.877 66.3623 57.9057 66.3164 57.9246C66.1421 57.9688 65.9731 57.9246 66.0523 57.6881C66.2927 56.9917 66.5436 56.3004 66.8024 55.6092C66.8263 55.5667 66.86 55.5305 66.9009 55.5034C66.9417 55.4763 66.9885 55.4591 67.0375 55.4532C67.0863 55.457 67.1336 55.4725 67.175 55.4983C67.2164 55.5241 67.2508 55.5595 67.2752 55.6014C67.5393 56.3394 67.8034 57.0878 68.0675 57.8311C68.0781 57.8415 68.049 57.8649 68.049 57.8986ZM67.3227 56.9423L67.0929 56.2614C67.0064 56.3455 66.9436 56.4503 66.9107 56.5655C66.7681 56.9839 66.8077 57.0281 67.3227 56.9423Z" fill="#10182A"/>
<path d="M31.112 57.8726C30.8479 57.9714 30.6525 57.9844 30.5838 57.7063C30.5151 57.4283 30.2642 57.4309 30.0318 57.4283C29.7994 57.4257 29.6013 57.4283 29.5405 57.6881C29.5405 57.7375 29.5115 57.8103 29.4745 57.8233C29.3788 57.8741 29.2716 57.9 29.1628 57.8986C29.1259 57.8986 29.0625 57.7271 29.0863 57.6569C29.3187 56.9709 29.5643 56.2848 29.8231 55.6065C29.8448 55.5628 29.8767 55.5247 29.9161 55.4953C29.9556 55.466 30.0016 55.4462 30.0503 55.4376C30.0988 55.4392 30.1463 55.4523 30.1886 55.4758C30.231 55.4993 30.2668 55.5326 30.2933 55.5728C30.5706 56.3394 30.8373 57.1008 31.112 57.8726ZM30.1057 56.2666H30.0212C29.978 56.3701 29.9409 56.4759 29.9103 56.5837C29.8839 56.698 29.839 56.8955 29.8786 56.9189C30.0285 56.9672 30.1857 56.99 30.3434 56.9865L30.1057 56.2666Z" fill="#10182A"/>
<path d="M21.9289 57.8102C21.8946 57.8388 21.8286 57.9297 21.7889 57.9219C21.6727 57.8882 21.4905 57.8388 21.4694 57.7608C21.3796 57.4412 21.1603 57.423 20.8883 57.423C20.6163 57.423 20.4499 57.4646 20.3601 57.7452C20.331 57.8362 20.1197 57.8674 19.9903 57.9245C19.9603 57.8207 19.9505 57.7123 19.9613 57.6049C20.1778 56.9656 20.4059 56.3315 20.6453 55.7026C20.6876 55.5961 20.8117 55.461 20.9094 55.4428C21.0072 55.4246 21.1445 55.5649 21.1736 55.6663C21.4245 56.3237 21.6542 56.9916 21.8893 57.6569C21.9025 57.6959 21.9078 57.7374 21.9289 57.8102ZM20.6638 56.924C21.0336 57.0306 21.1762 56.989 21.1313 56.7993C21.0777 56.6025 21.0124 56.409 20.9358 56.2198L20.8698 56.2328L20.6638 56.924Z" fill="#10182A"/>
<path d="M57.104 57.8674C56.7977 57.987 56.6286 57.9376 56.5573 57.6777C56.4781 57.3788 56.2351 57.436 56.0291 57.4178C55.8231 57.3996 55.6144 57.4178 55.5299 57.6777C55.5031 57.734 55.4645 57.7842 55.4168 57.8249C55.369 57.8656 55.3131 57.8961 55.2526 57.9142C55.1073 57.9558 55.0017 57.8726 55.0624 57.7011C55.3265 56.989 55.5642 56.2744 55.8336 55.5649C55.8491 55.523 55.8765 55.4863 55.9126 55.4593C55.9488 55.4324 55.9921 55.4163 56.0373 55.413C56.0825 55.4097 56.1278 55.4193 56.1675 55.4408C56.2073 55.4622 56.24 55.4945 56.2615 55.5337C56.552 56.3108 56.8214 57.0878 57.104 57.8674ZM55.7835 56.9656H56.3117L56.0898 56.2198H56.0106L55.7835 56.9656Z" fill="#10182A"/>
<path d="M13.0175 57.8883C12.7851 57.9818 12.6055 57.9532 12.5368 57.6856C12.4681 57.4179 12.2225 57.4257 12.0086 57.4257C11.7946 57.4257 11.5886 57.3997 11.5041 57.6856C11.4835 57.7402 11.4514 57.7899 11.41 57.8315C11.3686 57.8732 11.3188 57.9058 11.2638 57.9273C11.1 57.974 10.9574 57.9143 11.034 57.6986C11.2822 57.0047 11.5279 56.3109 11.7867 55.6196C11.8075 55.5762 11.8385 55.5383 11.877 55.5089C11.9156 55.4796 11.9607 55.4596 12.0086 55.4507C12.0574 55.4537 12.1047 55.4683 12.1465 55.4932C12.1884 55.5181 12.2235 55.5525 12.2489 55.5936C12.513 56.3239 12.7771 57.0567 13.0412 57.7895C13.0388 57.8235 13.0307 57.8568 13.0175 57.8883ZM12.2753 56.9579C12.2225 56.7656 12.1855 56.6175 12.1406 56.4694C12.1116 56.3836 12.0746 56.3005 12.0059 56.1212L11.7656 56.9579H12.2753Z" fill="#10182A"/>
<path d="M64.2823 57.9532C64.067 57.9745 63.8519 57.9123 63.6826 57.7798C63.5134 57.6472 63.4035 57.4549 63.3763 57.2437C63.342 56.8746 63.342 56.5032 63.3763 56.1341C63.3982 55.9568 63.4793 55.7916 63.607 55.6646C63.7346 55.5376 63.9016 55.4559 64.0815 55.4324C64.2637 55.3937 64.4538 55.4158 64.6217 55.4954C64.7896 55.5749 64.9258 55.7073 65.0086 55.8716C65.0325 55.9821 65.0325 56.0963 65.0086 56.2068C64.8871 56.1809 64.7154 56.2068 64.6467 56.1211C64.483 55.9418 64.3219 55.8196 64.0762 55.9158C63.8306 56.0119 63.8121 56.2432 63.8121 56.4667C63.794 56.6624 63.7984 56.8594 63.8253 57.054C63.8597 57.197 63.9574 57.3945 64.0762 57.4334C64.1951 57.4724 64.3958 57.3815 64.5543 57.3347C64.5992 57.3347 64.6256 57.2359 64.6652 57.2307C64.7849 57.2243 64.9048 57.2243 65.0244 57.2307C65.0329 57.3267 65.0248 57.4233 65.0006 57.5166C64.9384 57.6513 64.8369 57.7647 64.7089 57.8424C64.581 57.9202 64.4325 57.9587 64.2823 57.9532Z" fill="#10182A"/>
<path d="M18.0547 56.698C18.0547 56.303 18.0758 55.9184 18.4086 55.6351C18.51 55.544 18.6319 55.4778 18.7643 55.4422C18.8968 55.4065 19.0359 55.4024 19.1703 55.4301C19.3047 55.4577 19.4305 55.5164 19.5373 55.6013C19.6441 55.6862 19.7289 55.7949 19.7846 55.9184C19.8019 56.0111 19.8019 56.1062 19.7846 56.199C19.6733 56.2029 19.5618 56.1959 19.4519 56.1782C19.3937 56.16 19.3568 56.0717 19.304 56.0223C19.2561 55.9617 19.1914 55.916 19.1177 55.891C19.0439 55.866 18.9644 55.8626 18.8887 55.8814C18.8131 55.9001 18.7446 55.9401 18.6917 55.9966C18.6388 56.053 18.6038 56.1233 18.5908 56.199C18.534 56.5145 18.534 56.8373 18.5908 57.1527C18.6542 57.5192 19.0398 57.5997 19.3172 57.3424C19.3777 57.2736 19.4549 57.2208 19.5417 57.1891C19.6336 57.1723 19.7285 57.1919 19.8058 57.2437C19.8401 57.2723 19.8058 57.3996 19.7846 57.4698C19.7163 57.6296 19.5967 57.7631 19.4442 57.8499C19.2916 57.9367 19.1144 57.9721 18.9395 57.9506C18.7583 57.9431 18.5842 57.8795 18.4419 57.7689C18.2996 57.6583 18.1965 57.5063 18.1471 57.3347C18.1032 57.1245 18.0724 56.9118 18.0547 56.698Z" fill="#10182A"/>
<path d="M13.3213 56.6643C13.3213 56.342 13.3213 56.0198 13.3213 55.6975C13.3213 55.5208 13.4005 55.4377 13.5854 55.4377C13.942 55.4377 14.3038 55.4247 14.6604 55.4377C14.7475 55.4377 14.8294 55.5676 14.9245 55.6378C14.8373 55.7157 14.7607 55.8431 14.6604 55.8613C14.4508 55.8847 14.2396 55.8899 14.0291 55.8768C13.8046 55.8768 13.7861 56.0224 13.7861 56.1939C13.7861 56.3654 13.8178 56.4849 14.0212 56.4849C14.1894 56.4731 14.3585 56.4784 14.5257 56.5005C14.5734 56.5166 14.6164 56.544 14.651 56.5802C14.6855 56.6165 14.7105 56.6605 14.7237 56.7084C14.7237 56.7812 14.6075 56.88 14.5177 56.9137C14.4157 56.9375 14.3101 56.9427 14.2061 56.9293C13.7993 56.9293 13.7888 56.9449 13.7861 57.3555C13.7996 57.4795 13.7943 57.6047 13.7703 57.7271C13.7412 57.8103 13.625 57.9168 13.5511 57.9142C13.5017 57.9024 13.4563 57.8779 13.4197 57.8432C13.383 57.8085 13.3564 57.7649 13.3424 57.7167C13.3186 57.3659 13.3424 57.0125 13.3424 56.6617L13.3213 56.6643Z" fill="#10182A"/>
<path d="M31.923 57.0333C32.0497 56.6019 32.1633 56.1627 32.3112 55.7339C32.3672 55.601 32.4746 55.4954 32.6097 55.4402C32.7496 55.3857 32.8526 55.4844 32.7972 55.6533C32.5727 56.3576 32.3482 57.0593 32.1105 57.7583C32.0932 57.7989 32.0657 57.8345 32.0306 57.8618C31.9955 57.889 31.9539 57.9071 31.9097 57.9142C31.8611 57.9108 31.8139 57.896 31.7721 57.8712C31.7303 57.8463 31.6951 57.8121 31.6694 57.7713C31.4264 57.0619 31.1993 56.3498 30.9801 55.6325C30.9642 55.5832 31.0751 55.4376 31.091 55.4428C31.2072 55.4792 31.3789 55.5208 31.4132 55.6066C31.5347 55.9028 31.6087 56.2199 31.7011 56.5291C31.7486 56.6954 31.7988 56.8592 31.849 57.0255L31.923 57.0333Z" fill="#10182A"/>
<path d="M87.189 29.3699C87.1388 28.7748 87.0966 28.242 87.0543 27.7093C87.0549 27.616 87.0461 27.5228 87.0279 27.4312C87.0006 27.3669 86.9869 27.2978 86.9873 27.228C86.9878 27.1583 87.0025 27.0894 87.0306 27.0254C87.0587 26.9614 87.0996 26.9036 87.1508 26.8554C87.2021 26.8073 87.2627 26.7698 87.329 26.7452C87.4558 26.6854 87.6723 26.6282 87.7489 26.6906C87.8176 26.7475 87.8742 26.8172 87.9155 26.8957C87.9567 26.9742 87.9818 27.0599 87.9893 27.148C87.983 27.5203 87.945 27.8915 87.8757 28.2576C87.8416 28.4289 87.7744 28.5921 87.6776 28.7384C87.5614 28.9359 87.395 29.1126 87.189 29.3699Z" fill="#10182A"/>
<path d="M41.2492 56.9033C41.2492 56.6642 41.2492 56.4252 41.2492 56.1887C41.2492 55.9522 41.1726 55.856 40.9376 55.8716C40.8755 55.8847 40.8109 55.8784 40.7527 55.8534C40.6814 55.7963 40.5863 55.7105 40.5889 55.6351C40.5987 55.5907 40.6202 55.5495 40.6513 55.5157C40.6823 55.482 40.7218 55.4568 40.7659 55.4428C41.2202 55.4247 41.6744 55.4247 42.1261 55.4428C42.1745 55.457 42.2183 55.4834 42.2531 55.5194C42.2878 55.5554 42.3123 55.5998 42.3242 55.6481C42.3242 55.7235 42.1868 55.8586 42.1182 55.8534C41.7061 55.8301 41.6929 56.0717 41.7035 56.3732C41.7035 56.7994 41.7035 57.2256 41.7035 57.6492C41.7035 57.8103 41.6639 57.9714 41.4658 57.909C41.4133 57.8844 41.3674 57.8481 41.3317 57.803C41.2959 57.7579 41.2713 57.7052 41.2598 57.6492C41.2439 57.4008 41.2439 57.1517 41.2598 56.9033H41.2492Z" fill="#10182A"/>
<path d="M26.2579 56.9007C26.2739 57.1603 26.2739 57.4206 26.2579 57.6803C26.2579 57.7738 26.1074 57.8492 26.0255 57.9402C25.9542 57.857 25.8274 57.7738 25.8222 57.6803C25.801 57.2047 25.8037 56.7266 25.8222 56.251C25.8222 55.9911 25.7693 55.8482 25.4762 55.869C25.3151 55.882 25.1487 55.83 25.2121 55.6351C25.2398 55.5829 25.2796 55.5379 25.3282 55.5036C25.3768 55.4693 25.4329 55.4467 25.492 55.4376C25.8817 55.4155 26.2724 55.4155 26.662 55.4376C26.7518 55.4376 26.8364 55.5623 26.9262 55.6299C26.8416 55.7079 26.7545 55.8586 26.662 55.856C26.3425 55.856 26.2632 55.9989 26.2844 56.277C26.3002 56.4823 26.2844 56.6928 26.2844 56.8981L26.2579 56.9007Z" fill="#10182A"/>
<path d="M68.4921 56.88C68.4921 56.7136 68.4921 56.5473 68.4921 56.3836C68.5185 56.0665 68.4921 55.8223 68.0589 55.8638C67.9982 55.8638 67.8714 55.7209 67.8741 55.6482C67.8878 55.6004 67.914 55.5569 67.9502 55.5223C67.9864 55.4876 68.0311 55.4629 68.0801 55.4507C68.5006 55.4299 68.922 55.4299 69.3425 55.4507C69.4271 55.4507 69.5037 55.591 69.5829 55.6663C69.5089 55.7365 69.4323 55.8716 69.3663 55.8664C68.9543 55.8353 68.9332 56.0743 68.9464 56.3862C68.9596 56.7812 68.9464 57.1658 68.9464 57.5686C68.9464 57.7349 68.9939 57.9584 68.7113 57.9506C68.4287 57.9428 68.5 57.7167 68.4921 57.553C68.4842 57.3165 68.4921 57.0982 68.4921 56.88Z" fill="#10182A"/>
<path d="M34.9917 56.659C34.9917 56.3783 34.9917 56.0977 34.9917 55.8196C34.9917 55.6533 34.9415 55.4324 35.2267 55.4376C35.512 55.4428 35.4433 55.6455 35.446 55.804C35.446 56.1574 35.446 56.5109 35.446 56.8643C35.446 57.5348 35.3746 57.4906 36.0693 57.4906C36.1731 57.4708 36.2798 57.4708 36.3836 57.4906C36.4771 57.5506 36.5601 57.6252 36.6292 57.7115C36.5473 57.7816 36.4681 57.909 36.3809 57.9142C36.0138 57.9376 35.644 57.9142 35.2743 57.9272C35.0709 57.9272 34.989 57.8336 34.9917 57.6413C34.9917 57.3113 34.9917 56.9786 34.9917 56.646V56.659Z" fill="#10182A"/>
<path d="M49.3702 56.6979C49.3702 57.0176 49.386 57.3424 49.3702 57.6621C49.3591 57.7183 49.3346 57.7711 49.2988 57.8163C49.263 57.8614 49.2169 57.8976 49.1642 57.9219C48.9687 57.9713 48.9238 57.8154 48.9238 57.6621C48.9238 57.0176 48.9238 56.3627 48.9238 55.7312C48.9345 55.6749 48.9589 55.6218 48.9947 55.5766C49.0305 55.5314 49.0769 55.4953 49.1298 55.4714C49.3279 55.422 49.3702 55.5805 49.3702 55.7312V56.6979Z" fill="#10182A"/>
<path d="M17.7139 56.698C17.7139 57.0177 17.7298 57.3425 17.7139 57.6622C17.7028 57.7184 17.6783 57.7712 17.6425 57.8164C17.6068 57.8615 17.5606 57.8977 17.5079 57.922C17.3072 57.9714 17.2676 57.8077 17.2676 57.6622C17.2676 57.0177 17.2676 56.3628 17.2676 55.7313C17.2781 55.6745 17.3027 55.6211 17.3391 55.5758C17.3754 55.5305 17.4225 55.4947 17.4762 55.4714C17.6717 55.4247 17.7166 55.5806 17.7139 55.7443V56.698Z" fill="#10182A"/>
<path d="M65.7874 56.6981C65.7874 57.0099 65.7874 57.3218 65.7874 57.631C65.7874 57.7921 65.753 57.9533 65.555 57.9117C65.5003 57.8891 65.4521 57.8536 65.4148 57.8082C65.3774 57.7629 65.3521 57.7091 65.341 57.6518C65.3225 56.9995 65.3225 56.3524 65.341 55.6924C65.341 55.6014 65.4863 55.5183 65.5655 55.4325C65.6395 55.5235 65.7663 55.6118 65.7742 55.708C65.8032 56.0406 65.7874 56.3732 65.7874 56.6981Z" fill="#10182A"/>
<path d="M70.2781 56.6799C70.2781 57.0125 70.2965 57.3451 70.2781 57.6752C70.2781 57.7661 70.1302 57.8467 70.0509 57.935C69.9796 57.8519 69.8476 57.7713 69.8449 57.6752C69.8264 57.0125 69.8264 56.3472 69.8449 55.6846C69.8449 55.5962 69.9955 55.513 70.0747 55.4247C70.146 55.5078 70.2728 55.5858 70.2807 55.6846C70.2939 56.0146 70.2781 56.3472 70.2781 56.6799Z" fill="#10182A"/>
<path d="M49.9257 20.5888C49.8519 20.464 49.8044 20.3258 49.786 20.1826C49.7676 20.0393 49.7787 19.8939 49.8186 19.7549C49.8585 19.616 49.9265 19.4863 50.0184 19.3738C50.1103 19.2612 50.2243 19.168 50.3536 19.0997C50.4616 19.051 50.5571 18.9789 50.633 18.889C50.7089 18.799 50.7632 18.6934 50.792 18.58C50.8528 18.3591 51.0958 18.1875 51.2595 17.9952L51.3282 18.0446C50.8818 18.8814 50.4091 19.7156 49.9257 20.5888Z" fill="#10182A"/>
<path d="M70.457 14.8742C70.8202 14.6234 71.2548 14.4923 71.6984 14.4999C71.944 14.4999 71.9942 14.6533 71.9836 14.856C71.973 15.0587 71.8119 15.0405 71.664 15.0249C71.3497 14.9963 71.0328 14.9755 70.7211 14.9443C70.6315 14.9273 70.5432 14.9038 70.457 14.8742Z" fill="#10182A"/>
<path d="M80.7977 23.1199L81.0619 23.611L80.9536 23.6708L80.6895 23.1952L80.7977 23.1199Z" fill="#10182A"/>
<path d="M69.9264 25.2769C72.2506 25.1964 74.3371 27.174 74.3318 29.6038C74.3318 30.7589 73.8654 31.8668 73.0353 32.6836C72.2051 33.5004 71.0792 33.9592 69.9052 33.9592C68.7312 33.9592 67.6053 33.5004 66.7752 32.6836C65.945 31.8668 65.4787 30.7589 65.4787 29.6038C65.474 29.0301 65.5862 28.4613 65.8087 27.931C66.0311 27.4007 66.3594 26.9197 66.774 26.5163C67.1886 26.113 67.6812 25.7955 68.2226 25.5826C68.7641 25.3697 69.3434 25.2658 69.9264 25.2769ZM69.9264 26.4645C69.0908 26.4552 68.2849 26.7683 67.6811 27.3366C67.0773 27.905 66.7238 28.6833 66.6962 29.505C66.617 31.2566 68.2255 32.7898 69.8973 32.7638C70.7509 32.7591 71.5682 32.4237 72.1723 31.8303C72.7763 31.2369 73.1185 30.4332 73.1248 29.5934C73.1227 28.7629 72.7859 27.967 72.1883 27.3805C71.5907 26.7939 70.781 26.4645 69.9369 26.4645H69.9264Z" fill="#10182A"/>
<path d="M66.1446 51.6538C66.0087 51.6746 65.8695 51.6508 65.7488 51.5859C65.628 51.5211 65.5322 51.4189 65.4764 51.2952C65.392 51.1511 65.2709 51.0311 65.1251 50.947C65.1269 51.0814 65.1136 51.2156 65.0855 51.3472C65.0347 51.4518 64.9679 51.5482 64.8874 51.633C64.824 51.5473 64.7078 51.4615 64.7026 51.3732C64.6841 50.908 64.7026 50.4402 64.7026 49.9751C64.7026 49.7776 64.795 49.6918 64.9931 49.697C65.1912 49.7022 65.3311 49.697 65.4975 49.697C65.7617 49.71 65.9941 49.7672 66.0733 50.0426C66.1315 50.172 66.1439 50.3169 66.1085 50.454C66.0731 50.5911 65.9918 50.7126 65.8779 50.7989C65.8496 50.8354 65.8309 50.8782 65.8235 50.9236C65.8161 50.9689 65.8203 51.0153 65.8356 51.0587C65.9402 51.2501 66.0566 51.435 66.1842 51.6123L66.1446 51.6538ZM65.3523 50.6143L65.6851 50.2895C65.5866 50.2063 65.4727 50.1428 65.3496 50.1024C65.2978 50.1104 65.2491 50.1316 65.2083 50.164C65.1675 50.1964 65.1361 50.2388 65.1172 50.2869C65.1146 50.3753 65.2334 50.461 65.3496 50.6143H65.3523Z" fill="#10182A"/>
<path d="M67.864 29.5985C67.7557 28.637 68.7567 27.5195 69.9531 27.5767C70.5009 27.5836 71.0234 27.8043 71.4058 28.1903C71.7882 28.5763 71.9991 29.0959 71.9921 29.6349C71.9851 30.1739 71.7608 30.688 71.3685 31.0642C70.9762 31.4405 70.4481 31.648 69.9003 31.6411C68.6273 31.6489 67.753 30.5184 67.864 29.5985ZM69.8976 28.7695C69.7842 28.7653 69.6711 28.7836 69.5649 28.8231C69.4587 28.8626 69.3617 28.9227 69.2795 28.9997C69.1973 29.0767 69.1315 29.1691 69.0862 29.2715C69.0409 29.3739 69.0168 29.4842 69.0155 29.5959C69.0242 29.8222 69.1203 30.0366 69.2843 30.1955C69.4482 30.3544 69.6676 30.4457 69.8976 30.4509C70.126 30.4538 70.3466 30.3692 70.5127 30.215C70.6788 30.0607 70.7774 29.849 70.7877 29.6245C70.792 29.5093 70.7717 29.3945 70.7282 29.2875C70.6847 29.1805 70.6189 29.0836 70.5351 29.0031C70.4513 28.9225 70.3513 28.8602 70.2415 28.8199C70.1317 28.7797 70.0146 28.7625 69.8976 28.7695Z" fill="#10182A"/>
</g>
<defs>
<clipPath id="clip0_660_7">
<rect width="77" height="46" fill="white" transform="translate(11 12)"/>
</clipPath>
</defs>
</svg>
