<svg width="12" height="18" viewBox="0 0 12 18" fill="none" xmlns="http://www.w3.org/2000/svg">
<path fill-rule="evenodd" clip-rule="evenodd" d="M4.7284 1.43993C5.62254 0.545783 6.83527 0.043457 8.09978 0.043457H10.5518C10.928 0.043457 11.2329 0.348406 11.2329 0.724579V3.99397C11.2329 4.37014 10.928 4.67509 10.5518 4.67509H8.09978C8.06365 4.67509 8.029 4.68944 8.00346 4.71499C7.97791 4.74054 7.96356 4.77519 7.96356 4.81131V6.58223H10.5518C10.7616 6.58223 10.9596 6.67886 11.0887 6.84418C11.2178 7.0095 11.2635 7.22507 11.2126 7.42855L10.3953 10.6979C10.3195 11.0012 10.047 11.2139 9.73448 11.2139H7.96356V17.0715C7.96356 17.4477 7.65861 17.7526 7.28243 17.7526H4.01305C3.63687 17.7526 3.33192 17.4477 3.33192 17.0715V11.2139H1.56101C1.18483 11.2139 0.879883 10.9089 0.879883 10.5327V7.26335C0.879883 6.88718 1.18483 6.58223 1.56101 6.58223H3.33192V4.81131C3.33192 3.5468 3.83425 2.33408 4.7284 1.43993ZM8.09978 1.4057C7.19656 1.4057 6.33033 1.76451 5.69165 2.40318C5.05297 3.04186 4.69417 3.90809 4.69417 4.81131V7.26335C4.69417 7.63953 4.38922 7.94448 4.01305 7.94448H2.24213V9.85162H4.01305C4.38922 9.85162 4.69417 10.1566 4.69417 10.5327V16.3904H6.60131V10.5327C6.60131 10.1566 6.90626 9.85162 7.28243 9.85162H9.20267L9.67946 7.94448H7.28243C6.90626 7.94448 6.60131 7.63953 6.60131 7.26335V4.81131C6.60131 4.41389 6.75919 4.03275 7.0402 3.75174C7.32122 3.47072 7.70236 3.31284 8.09978 3.31284H9.8707V1.4057H8.09978Z" fill="#F2F7F5"/>
</svg>
