<svg width="18" height="18" viewBox="0 0 18 18" fill="none" xmlns="http://www.w3.org/2000/svg">
<path d="M12.5308 4.35703C12.5308 3.85547 12.9374 3.44887 13.439 3.44887C13.9406 3.44887 14.3472 3.85547 14.3472 4.35703C14.3472 4.8586 13.9406 5.2652 13.439 5.2652C12.9374 5.2652 12.5308 4.8586 12.5308 4.35703Z" fill="#F2F7F5"/>
<path fill-rule="evenodd" clip-rule="evenodd" d="M8.89819 4.58408C6.51576 4.58408 4.58441 6.51542 4.58441 8.89785C4.58441 11.2803 6.51576 13.2116 8.89819 13.2116C11.2806 13.2116 13.212 11.2803 13.212 8.89785C13.212 6.51542 11.2806 4.58408 8.89819 4.58408ZM5.94666 8.89785C5.94666 7.26777 7.2681 5.94632 8.89819 5.94632C10.5283 5.94632 11.8497 7.26777 11.8497 8.89785C11.8497 10.5279 10.5283 11.8494 8.89819 11.8494C7.2681 11.8494 5.94666 10.5279 5.94666 8.89785Z" fill="#F2F7F5"/>
<path fill-rule="evenodd" clip-rule="evenodd" d="M13.6735 0.572733C10.5253 0.220873 7.27107 0.220873 4.12286 0.572733C2.29558 0.776957 0.820422 2.21641 0.605593 4.05319C0.229125 7.27199 0.229125 10.5237 0.605593 13.7425C0.820422 15.5793 2.29558 17.0187 4.12286 17.223C7.27108 17.5748 10.5253 17.5748 13.6735 17.223C15.5008 17.0187 16.976 15.5793 17.1908 13.7425C17.5673 10.5237 17.5673 7.27199 17.1908 4.05319C16.976 2.21641 15.5008 0.776957 13.6735 0.572733ZM4.27417 1.92655C7.32182 1.58593 10.4746 1.58593 13.5222 1.92655C14.7302 2.06155 15.6978 3.01478 15.8378 4.21144C16.202 7.3251 16.202 10.4706 15.8378 13.5843C15.6978 14.7809 14.7302 15.7341 13.5222 15.8692C10.4746 16.2098 7.32182 16.2098 4.27417 15.8692C3.06621 15.7341 2.09858 14.7809 1.95862 13.5843C1.59444 10.4706 1.59444 7.3251 1.95862 4.21144C2.09858 3.01478 3.06621 2.06155 4.27417 1.92655Z" fill="#F2F7F5"/>
</svg>
