<svg width="99" height="74" viewBox="0 0 99 74" fill="none" xmlns="http://www.w3.org/2000/svg">
<rect width="99" height="74" fill="white"/>
<path d="M31.1529 36.1671V35.9787C32.0375 36.1015 32.9139 36.1343 33.7903 36.1343C37.4024 36.1343 41.121 35.9214 44.5448 34.8238C47.6245 33.8163 54.5948 30.3516 54.5948 26.0105C54.5948 18.2457 43.1851 15.6001 36.051 15.6001C32.0948 15.6001 28.4418 16.3864 25.018 17.7706C22.569 18.7453 20.1773 20.1623 18.2934 22.1117C17.1631 23.2748 16 24.8802 16 26.7313C16 27.5504 16.2457 28.05 16.688 28.2712C17.8757 28.8609 18.3016 27.8125 18.2606 27.0999C18.2279 26.461 17.7037 26.2808 17.7037 26.0269C17.7037 22.7588 22.5035 19.6054 26.4924 18.4669C28.8185 17.8116 32.8402 17.5167 35.9527 17.5167C40.4494 17.5167 45.2246 18.6552 47.9931 21.006C50.2865 22.9882 51.3103 25.0686 51.3103 26.5429C51.3103 30.0977 46.7235 32.4976 43.3162 33.6689C41.1702 34.4061 38.328 34.5699 36.0755 34.4224C33.6593 34.2668 32.6354 33.5215 31.1037 32.8171C31.1037 32.8171 31.0136 31.4082 31.1857 30.2779C31.4478 28.5579 30.4239 27.9272 29.7113 28.5169C29.2526 28.9019 28.8922 30.5564 28.8021 31.1871C27.3524 31.1871 25.7798 32.4157 25.7798 33.6361C25.7798 34.7337 27.2295 35.1432 28.6383 35.4954C28.6383 35.7821 28.7039 36.0934 28.7039 36.3718C28.7039 36.5602 28.7366 36.7486 28.7366 36.937C28.925 39.386 29.1462 41.745 29.5557 44.1367C29.6786 44.9967 30.0963 48.2239 31.0546 48.6334C31.7918 48.9528 33.4299 48.5924 33.389 47.372C33.3808 47.2737 33.3152 46.8642 33.2825 46.8069C32.0047 43.809 31.1529 38.3049 31.1529 36.1671Z" fill="black"/>
<path d="M83.4271 44.8494C83.4271 44.8494 83.3124 44.6774 83.0831 44.7101C82.8619 44.7429 82.3623 45.1688 81.9364 45.3818C81.5842 45.562 81.6333 45.5374 81.1337 45.7995C80.3719 46.2008 79.3071 46.4138 78.4635 46.6923C77.4888 47.0117 76.5059 47.1674 75.4984 47.1674C74.3108 47.1674 71.8044 46.5612 71.8044 45.1934C72.8119 44.9558 76.9728 42.7525 76.9728 41.6222C76.9728 41.1471 76.8171 39.8121 75.9817 39.2633C75.5394 38.9766 74.9742 38.7882 74.3763 38.7882C74.0814 38.7882 73.3279 39.0094 72.902 39.1977C72.7627 39.2551 72.6317 39.3124 72.5088 39.3616C70.6495 39.6646 68.823 40.2052 66.9555 40.3526C65.3501 40.4755 64.2689 40.4346 62.6635 40.4346C61.8363 40.4346 60.3701 39.0503 59.8131 39.64C59.6985 39.7629 59.4609 40.3526 59.2889 40.3526C58.9285 40.3526 58.6337 39.5827 58.3961 39.3452C57.9784 39.3452 56.3075 39.3861 56.373 40.5328C56.4058 41.0325 56.758 41.4174 56.9873 42.2201C57.3232 43.3587 57.1839 44.2023 57.3559 45.39C57.3969 45.7012 57.446 46.0452 57.4706 46.3728C57.1348 46.3974 56.7989 46.4056 56.4549 46.4056C55.5621 46.4056 54.6694 46.2828 53.8421 46.1026C53.0722 45.9224 52.3596 45.5128 51.5814 45.39C50.574 44.792 49.4437 44.317 48.6164 43.4897C48.0267 42.9573 47.4287 42.2365 47.1339 41.4666C47.0192 41.1717 47.0192 41.0489 46.6588 41.0489C46.4213 41.0489 45.0043 40.3363 44.4801 41.5075L44.3981 41.7041C44.218 42.3594 43.8739 42.9819 43.5054 43.547C42.8665 44.5217 41.3676 46.3401 40.3601 46.3401C39.7704 46.3401 39.238 46.2909 38.7547 45.865C37.8046 45.0296 37.7473 43.1375 37.7473 41.8843C37.7473 41.1144 37.7063 40.3936 37.8046 39.6319C37.8455 39.3042 38.0421 38.9193 37.2722 38.8619C36.3876 38.7882 35.5439 39.4844 35.3146 40.4673C35.1999 40.9588 35.1098 41.27 35.2327 41.4502C35.118 42.1628 35.2573 42.4249 35.2573 43.1375C35.2573 44.2678 35.5521 45.3326 35.9699 46.3401C36.5678 47.7079 37.0756 48.2731 38.468 48.183C42.6617 47.9045 44.2835 44.0631 45.1763 43.9484C45.4138 44.0057 45.6186 44.4235 45.7742 44.6774C47.4369 47.4131 54.5055 47.8308 54.5055 47.8308C55.5212 47.8308 56.5041 47.6834 57.4706 47.4458C57.4378 47.9537 57.487 48.4205 58.2159 48.4205C58.8712 48.4205 59.2316 48.2895 59.723 47.8799C60.1244 47.5441 60.1899 47.4704 60.3537 47.0527C60.624 46.3483 60.8042 45.6521 60.8861 44.317C60.9107 43.8992 60.8288 43.547 60.8288 43.1293C60.8288 42.8918 60.5831 42.2857 60.7059 42.1137C61.7789 41.7533 63.1468 42.1218 64.2771 41.9416C66.3985 41.6468 68.5117 41.5239 70.5185 40.7786C70.4366 40.9096 70.3546 41.0489 70.2809 41.2127C70.1007 41.6304 69.9451 42.0399 69.7485 42.4577C69.4127 43.1866 69.1752 43.7682 68.9786 44.4726C68.9295 44.6446 68.8721 44.8903 68.8721 44.9558C68.8721 45.2589 68.8557 45.3162 68.9213 45.6029C68.9622 45.7913 69.0605 45.9961 69.126 46.1517C69.511 47.0691 70.0516 47.3312 70.8215 47.8636C71.8781 48.5925 73.6719 48.5762 74.9169 48.5762C75.4493 48.5762 76.2274 48.4123 76.727 48.2485C80.1016 47.1674 80.2081 47.0117 82.1903 46.0206C82.7145 45.7749 83.5008 45.4801 83.4271 44.8494ZM74.3681 41.3028C74.3681 41.8352 73.3852 42.6706 73.3852 42.6706C73.1641 42.8672 72.7054 43.2686 72.304 43.0392C72.0092 42.9 72.0829 42.4167 72.0829 42.4167C72.1484 41.655 72.6235 40.7294 73.3033 40.5083C73.6555 40.3936 74.1388 40.4509 74.2862 40.7048C74.4091 40.9342 74.3681 41.3028 74.3681 41.3028Z" fill="black"/>
<path d="M30.6123 52.5245V56.5052H32.8975V56.2513H30.9236V52.5245H30.6123Z" fill="black"/>
<path d="M50.1646 52.524L48.6493 54.2359L47.134 52.524H46.7327L48.4445 54.4653L46.6426 56.5048H47.0357L48.6493 54.6864L50.2629 56.5048H50.656L48.8459 54.4653L50.5578 52.524H50.1646Z" fill="black"/>
<path d="M34.1013 52.524H33.79V56.5048H34.1013V52.524Z" fill="black"/>
<path d="M35.4375 52.524V56.5048H35.7487V54.5472H37.3214V54.2932H35.7487V52.778H37.4934V52.524H35.4375Z" fill="black"/>
<path d="M38.4512 52.524V56.5048H40.6709V56.2508H38.7542V54.6291H40.5726V54.3752H38.7542V52.778H40.6217V52.524H38.4512Z" fill="black"/>
<path d="M43.8086 52.524V56.5048H46.0283V56.2508H44.1198V54.6291H45.9382V54.3752H44.1198V52.778H45.9791V52.524H43.8086Z" fill="black"/>
<path d="M52.6542 52.524H51.5566V56.5048H51.8679V54.6455H52.6296C53.6617 54.6455 53.9647 54.0885 53.9647 53.5807C53.9565 52.9991 53.5879 52.524 52.6542 52.524ZM52.6051 54.3834H51.8597V52.778H52.6378C53.3422 52.778 53.6207 53.1465 53.6207 53.5807C53.6207 54.0311 53.3422 54.3834 52.6051 54.3834Z" fill="black"/>
<path d="M55.2917 54.6291H57.1101V54.3752H55.2917V52.778H57.151V52.524H54.9805V56.5048H57.2002V56.2508H55.2917V54.6291Z" fill="black"/>
<path d="M59.8543 54.5226C60.3621 54.3342 60.616 54.0148 60.616 53.5561C60.616 53.0237 60.272 52.5322 59.2973 52.5322H58.2734V56.5129H58.5847V54.6045H59.1253C59.6003 54.6045 59.756 54.67 60.2392 55.4236L60.9354 56.5129H61.2958L60.3948 55.1369C60.1983 54.8502 60.0426 54.6209 59.8543 54.5226ZM59.2481 54.3424H58.5847V52.7861H59.2318C59.9607 52.7861 60.2802 53.1138 60.2802 53.5643C60.2802 54.0311 59.9444 54.3424 59.2481 54.3424Z" fill="black"/>
<path d="M62.3611 52.524H62.0498V56.5048H62.3611V52.524Z" fill="black"/>
<path d="M64.0228 54.6291H65.8411V54.3752H64.0228V52.778H65.8903V52.524H63.7197V56.5048H65.9394V56.2508H64.0228V54.6291Z" fill="black"/>
<path d="M70.2894 56.0051L67.267 52.524H67.0049V56.5048H67.3161V53.0237L70.3385 56.5048H70.6006V52.524H70.2894V56.0051Z" fill="black"/>
<path d="M72.1073 54.5225C72.1073 53.5151 72.8527 52.7615 73.8437 52.7615C74.3188 52.7615 74.7693 52.8844 75.2607 53.1465V52.8107C74.7775 52.5895 74.3024 52.4749 73.8601 52.4749C72.7708 52.4749 71.7715 53.3021 71.7715 54.5225C71.7715 55.6938 72.6807 56.562 73.8929 56.562C74.3516 56.562 74.843 56.431 75.3099 56.1853V55.8658C74.7693 56.1525 74.3434 56.2754 73.8929 56.2754C72.8527 56.2754 72.1073 55.5464 72.1073 54.5225Z" fill="black"/>
<path d="M76.6609 54.6291H78.471V54.3752H76.6609V52.778H78.5201V52.524H76.3496V56.5048H78.5693V56.2508H76.6609V54.6291Z" fill="black"/>
<path d="M79.7821 53.5151C79.7821 53.081 80.1425 52.7534 80.6258 52.7534C80.9042 52.7534 81.109 52.8271 81.5185 53.0564V52.7206C81.2073 52.5486 80.9042 52.4667 80.593 52.4667C79.9623 52.4667 79.4463 52.9335 79.4463 53.5233C79.4463 54.8338 81.3465 54.3424 81.3465 55.4727C81.3465 55.9232 80.978 56.2672 80.5029 56.2672C80.1916 56.2672 79.9459 56.1607 79.4954 55.8413V56.2017C79.8476 56.4392 80.1916 56.5539 80.5193 56.5539C81.1663 56.5539 81.6742 56.0706 81.6742 55.4645C81.6824 54.0721 79.7821 54.5799 79.7821 53.5151Z" fill="black"/>
</svg>
