<svg width="21" height="18" viewBox="0 0 21 18" fill="none" xmlns="http://www.w3.org/2000/svg">
<path fill-rule="evenodd" clip-rule="evenodd" d="M13.2441 1.03641C13.7058 0.957321 14.2228 0.930916 14.7094 1.01323C15.5784 1.16025 16.381 1.56414 17.0155 2.16966C17.4303 2.17904 17.8379 2.09733 18.1986 1.98085C18.5038 1.88227 18.7616 1.76323 18.9423 1.66911C19.0322 1.62232 19.1016 1.58239 19.1467 1.55537C19.1692 1.54187 19.1856 1.53166 19.1953 1.5255L19.2039 1.51999C19.4735 1.34042 19.8324 1.37537 20.0621 1.60378C20.2918 1.83224 20.3288 2.19089 20.1505 2.46144C19.9619 2.74778 19.7 3.25823 19.4066 3.83015C19.3605 3.92008 19.3136 4.01152 19.2661 4.10386C19.0978 4.43076 18.9253 4.76116 18.7644 5.04463C18.6635 5.22262 18.5555 5.40332 18.4466 5.55947V5.80811C18.4535 6.72138 18.3487 7.62989 18.1361 8.51373C18.0024 9.06984 17.826 9.61618 17.6078 10.1478C17.0425 11.5252 16.2085 12.7761 15.1543 13.8275C14.1002 14.879 12.8471 15.7098 11.4683 16.2715C10.0907 16.8328 8.61517 17.1141 7.12774 17.0992C4.97147 17.1011 2.86057 16.4798 1.04904 15.3102C0.782217 15.1379 0.669878 14.8041 0.778255 14.5056C0.886632 14.207 1.18696 14.023 1.50215 14.062C1.77493 14.0958 2.04957 14.1122 2.32443 14.1113C3.31201 14.1086 4.28078 13.8904 5.16521 13.4793C4.88408 13.3513 4.61569 13.1935 4.3649 13.0076C3.62773 12.4609 3.07928 11.6981 2.79587 10.8253C2.72222 10.5984 2.77257 10.3496 2.9286 10.1693C2.9314 10.166 2.93422 10.1628 2.93707 10.1597C2.7704 10.0111 2.61444 9.84923 2.47086 9.6752C1.82487 8.89218 1.46916 7.91006 1.46391 6.89497L1.46389 6.89145L1.4639 6.84604C1.4639 6.60459 1.59173 6.38119 1.79988 6.25884C1.85265 6.22782 1.90858 6.20448 1.96611 6.18882C1.65885 5.57574 1.49906 4.89875 1.50023 4.21195C1.49987 3.43386 1.70311 2.66922 2.08977 1.99399C2.20139 1.79907 2.40194 1.67171 2.62583 1.65357C2.84972 1.63543 3.06816 1.72884 3.20971 1.90325C4.08386 2.98034 5.17483 3.86149 6.41174 4.48946C7.04757 4.81227 7.71466 5.06446 8.40105 5.24286C8.78588 5.34287 9.17676 5.41969 9.5716 5.47275C9.55421 4.81592 9.68392 4.15943 9.95612 3.55284C10.3554 2.663 11.0388 1.93086 11.899 1.47125C12.2633 1.2766 12.7469 1.12157 13.2441 1.03641ZM3.00167 7.89076C3.11941 8.22214 3.29457 8.53302 3.52166 8.80829C3.96786 9.34914 4.58718 9.71927 5.27486 9.85607C5.58117 9.917 5.80679 10.1785 5.82225 10.4904C5.83771 10.8023 5.63905 11.0848 5.34027 11.1757C5.0928 11.251 4.83926 11.3035 4.58284 11.3326C4.75228 11.5511 4.95161 11.7467 5.17629 11.9133C5.68594 12.2912 6.30072 12.5009 6.93508 12.5131C7.22289 12.5186 7.47614 12.7045 7.56771 12.9774C7.65928 13.2504 7.56938 13.5514 7.34315 13.7294C6.39034 14.4791 5.28855 15.0019 4.12106 15.2688C5.0887 15.5787 6.10352 15.7382 7.13001 15.737L7.13792 15.7369C8.44572 15.7505 9.74313 15.5034 10.9543 15.01C12.1656 14.5165 13.2663 13.7867 14.1923 12.8631C15.1183 11.9394 15.851 10.8406 16.3475 9.63061C16.5392 9.16361 16.6942 8.68368 16.8117 8.19517C16.9986 7.418 17.0906 6.61912 17.0843 5.81606L17.0843 5.81073V5.32941C17.0843 5.16425 17.1443 5.00473 17.2532 4.88052C17.3161 4.80873 17.4261 4.64294 17.5796 4.3724C17.7255 4.11527 17.887 3.80659 18.0549 3.48039C18.065 3.46066 18.0752 3.44083 18.0855 3.42091C17.6499 3.51549 17.1563 3.56506 16.6388 3.50914C16.4749 3.49143 16.323 3.41488 16.2112 3.29369C15.7545 2.79844 15.1464 2.46877 14.4822 2.35639C14.1874 2.30653 13.8311 2.31794 13.4741 2.3791C13.0862 2.44554 12.7486 2.5618 12.541 2.67275C11.9468 2.99022 11.4748 3.49592 11.199 4.11055C10.9232 4.72519 10.8591 5.41398 11.017 6.06891C11.0673 6.2777 11.0162 6.49801 10.8791 6.66332C10.742 6.82863 10.5349 6.91959 10.3204 6.90874C9.55445 6.87 8.79661 6.75316 8.05839 6.5613C7.27746 6.35833 6.51848 6.0714 5.79506 5.70413C4.72998 5.16339 3.76001 4.45767 2.92011 3.61517C2.88179 3.81098 2.86234 4.0108 2.86248 4.21192L2.86247 4.21366C2.86152 4.7138 2.98426 5.20642 3.21976 5.64765C3.45525 6.08888 3.7962 6.46503 4.21224 6.74262C4.46473 6.91108 4.57528 7.22628 4.48332 7.51555C4.39137 7.80482 4.1191 7.99833 3.81568 7.99007C3.54088 7.9826 3.26837 7.94917 3.00167 7.89076Z" fill="#F2F7F5"/>
</svg>
